<svg width="1600" height="900" viewBox="0 0 1600 900" fill="none" xmlns="http://www.w3.org/2000/svg">
<g clip-path="url(#clip0_635_2)">
<rect width="1600" height="900" fill="#14101E"/>
<g opacity="0.8">
<g filter="url(#filter0_f_635_2)">
<ellipse cx="641.155" cy="1939.33" rx="1053.55" ry="455.079" transform="rotate(21.961 641.155 1939.33)" fill="#FF33DE"/>
</g>
<ellipse cx="473.858" cy="1808.32" rx="369.41" ry="312.297" transform="rotate(21.961 473.858 1808.32)" fill="white"/>
</g>
<g opacity="0.8">
<g filter="url(#filter2_f_635_2)">
<path d="M1995.09 429.836C2047.02 613.819 1704.51 871.515 1230.08 1005.42C755.646 1139.32 328.948 1098.72 277.021 914.735C225.095 730.752 574.068 650.107 1048.5 516.206C1522.93 382.305 1943.17 245.853 1995.09 429.836Z" fill="#34DBFF"/>
</g>
<g filter="url(#filter3_f_635_2)">
<path d="M1578.5 356.706C1578.5 461.64 1436.73 868.945 1308.32 868.945C1179.92 868.945 656 973.879 656 868.945C656 764.011 1130.59 618.445 1259 618.445C1387.41 618.445 1363.5 273.206 1578.5 356.706Z" fill="#E3FFF6"/>
</g>
</g>
<g opacity="0.8">
<g filter="url(#filter4_f_635_2)">
<ellipse cx="434" cy="-16.5" rx="867" ry="374.5" fill="#FF33DE"/>
</g>
<g filter="url(#filter5_f_635_2)">
<ellipse cx="266" cy="-65" rx="304" ry="257" fill="white"/>
</g>
</g>
</g>
<defs>
<filter id="filter0_f_635_2" x="-950.82" y="761.943" width="3183.95" height="2354.77" filterUnits="userSpaceOnUse" color-interpolation-filters="sRGB">
<feFlood flood-opacity="0" result="BackgroundImageFix"/>
<feBlend mode="normal" in="SourceGraphic" in2="BackgroundImageFix" result="shape"/>
<feGaussianBlur stdDeviation="300" result="effect1_foregroundBlur_635_2"/>
</filter>
<filter id="filter2_f_635_2" x="-328.1" y="-259.436" width="2928.4" height="1943.77" filterUnits="userSpaceOnUse" color-interpolation-filters="sRGB">
<feFlood flood-opacity="0" result="BackgroundImageFix"/>
<feBlend mode="normal" in="SourceGraphic" in2="BackgroundImageFix" result="shape"/>
<feGaussianBlur stdDeviation="300" result="effect1_foregroundBlur_635_2"/>
</filter>
<filter id="filter3_f_635_2" x="356" y="43.6792" width="1522.5" height="1171.9" filterUnits="userSpaceOnUse" color-interpolation-filters="sRGB">
<feFlood flood-opacity="0" result="BackgroundImageFix"/>
<feBlend mode="normal" in="SourceGraphic" in2="BackgroundImageFix" result="shape"/>
<feGaussianBlur stdDeviation="150" result="effect1_foregroundBlur_635_2"/>
</filter>
<filter id="filter4_f_635_2" x="-1033" y="-991" width="2934" height="1949" filterUnits="userSpaceOnUse" color-interpolation-filters="sRGB">
<feFlood flood-opacity="0" result="BackgroundImageFix"/>
<feBlend mode="normal" in="SourceGraphic" in2="BackgroundImageFix" result="shape"/>
<feGaussianBlur stdDeviation="300" result="effect1_foregroundBlur_635_2"/>
</filter>
<filter id="filter5_f_635_2" x="-538" y="-822" width="1608" height="1514" filterUnits="userSpaceOnUse" color-interpolation-filters="sRGB">
<feFlood flood-opacity="0" result="BackgroundImageFix"/>
<feBlend mode="normal" in="SourceGraphic" in2="BackgroundImageFix" result="shape"/>
<feGaussianBlur stdDeviation="250" result="effect1_foregroundBlur_635_2"/>
</filter>
<clipPath id="clip0_635_2">
<rect width="1600" height="900" fill="white"/>
</clipPath>
</defs>
</svg>
